<svg width="18" height="21" viewBox="0 0 18 21" fill="none" xmlns="http://www.w3.org/2000/svg">
<g clip-path="url(#clip0_1819_5297)">
<path d="M15.007 20.1599C13.8484 21.2645 12.57 21.0923 11.3515 20.5715C10.056 20.0402 8.87165 20.0066 7.50347 20.5715C5.79967 21.2939 4.8954 21.0839 3.86927 20.1599C-1.92408 14.301 -1.06897 5.37598 5.51535 5.03998C7.11226 5.12398 8.23032 5.90728 9.17093 5.97238C10.569 5.69308 11.9073 4.89298 13.4037 4.99798C15.2016 5.14078 16.5462 5.83798 17.4441 7.09168C13.7458 9.27567 14.6222 14.0637 18.0192 15.4077C17.3393 17.1611 16.4671 18.8936 15.0049 20.1746L15.007 20.1599ZM9.04267 4.97698C8.86951 2.37299 11.018 0.230995 13.4892 0.0209961C13.8291 3.02399 10.7101 5.27098 9.04267 4.97698Z" fill="black"/>
</g>
<defs>
<clipPath id="clip0_1819_5297">
<rect width="18" height="21" fill="white"/>
</clipPath>
</defs>
</svg>
