<svg width="10" height="18" viewBox="0 0 10 18" fill="none" xmlns="http://www.w3.org/2000/svg">
<g clip-path="url(#clip0_1188_3541)">
<path d="M9.59583 15.7263C9.83051 15.9835 9.96089 16.3218 9.94785 16.6737C9.94785 17.0256 9.81747 17.3504 9.56975 17.6075C9.33507 17.8511 9.00913 18 8.67014 18C8.33116 18 8.00521 17.8782 7.7575 17.6346L0.378096 9.97444C0.260756 9.85263 0.169492 9.70376 0.104302 9.54135C0.0391134 9.37895 0 9.20301 0 9.02707C0 8.85113 0.0391134 8.67519 0.104302 8.49925C0.169492 8.33684 0.260756 8.18797 0.378096 8.06616L7.7575 0.406015C7.87484 0.284211 8.01825 0.17594 8.17471 0.108271C8.3442 0.0406015 8.51369 0 8.68318 0C8.85267 0 9.0352 0.0270677 9.19166 0.0947368C9.34811 0.162406 9.49153 0.270677 9.6219 0.392481C9.73924 0.514286 9.83051 0.676692 9.8957 0.839098C9.97392 1.0015 10 1.17744 10 1.36692C10 1.54286 9.96089 1.7188 9.8957 1.8812C9.83051 2.04361 9.72621 2.19248 9.59583 2.32782L3.14211 9.02707L4.36767 10.2857L9.59583 15.7263Z" fill="white"/>
</g>
<defs>
<clipPath id="clip0_1188_3541">
<rect width="10" height="18" fill="white"/>
</clipPath>
</defs>
</svg>
