<svg width="10" height="18" viewBox="0 0 10 18" fill="none" xmlns="http://www.w3.org/2000/svg">
<g clip-path="url(#clip0_1613_2439)">
<path d="M0.404173 2.27368C0.169493 2.01654 0.0391154 1.6782 0.0521531 1.32632C0.0521532 0.974437 0.182531 0.649623 0.43025 0.39248C0.66493 0.148872 0.990875 -7.87603e-07 1.32986 -7.57968e-07C1.66884 -7.28333e-07 1.99479 0.121804 2.24251 0.365413L9.6219 8.02556C9.73924 8.14737 9.83051 8.29624 9.8957 8.45865C9.96089 8.62105 10 8.79699 10 8.97293C10 9.14887 9.96089 9.32481 9.8957 9.50075C9.83051 9.66316 9.73924 9.81203 9.6219 9.93383L2.2425 17.594C2.12516 17.7158 1.98175 17.8241 1.82529 17.8917C1.6558 17.9594 1.48631 18 1.31682 18C1.14733 18 0.964798 17.9729 0.808344 17.9053C0.651891 17.8376 0.508474 17.7293 0.378097 17.6075C0.260757 17.4857 0.169492 17.3233 0.104302 17.1609C0.0260755 16.9985 1.02935e-07 16.8226 1.195e-07 16.6331C1.34881e-07 16.4571 0.0391141 16.2812 0.104303 16.1188C0.169492 15.9564 0.273794 15.8075 0.404172 15.6722L6.85789 8.97293L5.63234 7.71429L0.404173 2.27368Z" fill="#6A5DB9"/>
</g>
<defs>
<clipPath id="clip0_1613_2439">
<rect width="10" height="18" fill="white" transform="translate(10 18) rotate(-180)"/>
</clipPath>
</defs>
</svg>
