<svg width="16" height="16" viewBox="0 0 16 16" fill="none" xmlns="http://www.w3.org/2000/svg">
<path fill-rule="evenodd" clip-rule="evenodd" d="M3.0613 10.2027C1.56264 6.52467 4.26864 2.5 8.23997 2.5H8.45397C9.16031 2.5 9.85973 2.63912 10.5123 2.90943C11.1649 3.17973 11.7578 3.57592 12.2573 4.07537C12.7567 4.57483 13.1529 5.16777 13.4232 5.82034C13.6935 6.47291 13.8326 7.17233 13.8326 7.87867C13.8326 9.46678 13.2018 10.9899 12.0788 12.1128C10.9558 13.2358 9.43275 13.8667 7.84464 13.8667H2.6313C2.52772 13.8668 2.42666 13.8347 2.34209 13.7749C2.25753 13.715 2.19363 13.6304 2.15923 13.5327C2.12483 13.435 2.12163 13.329 2.15007 13.2294C2.1785 13.1298 2.23717 13.0415 2.31797 12.9767L3.63197 11.9213C3.66006 11.8988 3.68012 11.8678 3.68913 11.833C3.69814 11.7981 3.69563 11.7613 3.68197 11.728L3.0613 10.2027ZM8.23997 3.5C4.97797 3.5 2.75597 6.80467 3.98664 9.82533L4.60797 11.3513C4.70264 11.584 4.71971 11.8409 4.65665 12.084C4.5936 12.3271 4.45377 12.5434 4.25797 12.7007L4.05197 12.8667H7.84464C9.16754 12.8667 10.4363 12.3411 11.3717 11.4057C12.3071 10.4703 12.8326 9.20157 12.8326 7.87867C12.8326 6.71737 12.3713 5.60364 11.5502 4.78248C10.729 3.96132 9.61526 3.5 8.45397 3.5H8.23997Z" fill="#737373"/>
</svg>
