<svg width="37" height="36" viewBox="0 0 37 36" fill="none" xmlns="http://www.w3.org/2000/svg">
<path d="M18.5 3.9375C15.7187 3.9375 12.9999 4.76225 10.6873 6.30746C8.37473 7.85267 6.57231 10.0489 5.50795 12.6185C4.44359 15.1881 4.16511 18.0156 4.70771 20.7435C5.25032 23.4713 6.58964 25.977 8.55632 27.9437C10.523 29.9104 13.0287 31.2497 15.7565 31.7923C18.4844 32.3349 21.3119 32.0564 23.8815 30.9921C26.4511 29.9277 28.6473 28.1253 30.1925 25.8127C31.7378 23.5001 32.5625 20.7813 32.5625 18C32.5584 14.2716 31.0755 10.6972 28.4392 8.06083C25.8028 5.42449 22.2284 3.94159 18.5 3.9375ZM18.5 30.742C17.6098 29.8856 15.2656 27.3094 14.1027 23.0625H22.8974C21.7344 27.3094 19.3902 29.8856 18.5 30.742ZM13.8341 21.9375C13.3053 19.3391 13.3053 16.6609 13.8341 14.0625H23.1659C23.6947 16.6609 23.6947 19.3391 23.1659 21.9375H13.8341ZM18.5 5.25797C19.3902 6.11437 21.7344 8.69062 22.8974 12.9375H14.1027C15.2656 8.69062 17.6098 6.11437 18.5 5.25797ZM24.3233 14.0625H30.8244C31.6419 16.6239 31.6419 19.3761 30.8244 21.9375H24.3233C24.8089 19.335 24.8089 16.665 24.3233 14.0625ZM30.4053 12.9375H24.0772C23.3674 10.0437 21.9579 7.36849 19.9724 5.14687C22.2437 5.41076 24.4049 6.27031 26.2371 7.63844C28.0692 9.00657 29.5072 10.8347 30.4053 12.9375ZM17.0291 5.14687C15.0436 7.36849 13.634 10.0437 12.9242 12.9375H6.5961C7.49422 10.8347 8.93221 9.00657 10.7644 7.63844C12.5965 6.27031 14.7577 5.41076 17.0291 5.14687ZM6.17563 14.0625H12.6767C12.1911 16.665 12.1911 19.335 12.6767 21.9375H6.17563C5.35815 19.3761 5.35815 16.6239 6.17563 14.0625ZM6.59751 23.0625H12.9256C13.6354 25.9563 15.045 28.6315 17.0305 30.8531C14.7586 30.5897 12.5968 29.7304 10.7642 28.3622C8.93147 26.9941 7.49305 25.1657 6.59469 23.0625H6.59751ZM19.9738 30.8531C21.9583 28.6312 23.3668 25.956 24.0758 23.0625H30.4039C29.5058 25.1653 28.0678 26.9934 26.2356 28.3616C24.4035 29.7297 22.2423 30.5892 19.9709 30.8531H19.9738Z" fill="white" fill-opacity="0.3"/>
</svg>