<svg width="36" height="36" viewBox="0 0 36 36" fill="none" xmlns="http://www.w3.org/2000/svg">
<path d="M18 3.375C15.1075 3.375 12.2799 4.23274 9.87479 5.83976C7.46972 7.44677 5.5952 9.73089 4.48827 12.4033C3.38134 15.0756 3.09171 18.0162 3.65602 20.8532C4.22033 23.6902 5.61323 26.2961 7.65857 28.3414C9.70391 30.3868 12.3098 31.7797 15.1468 32.344C17.9838 32.9083 20.9244 32.6187 23.5968 31.5117C26.2691 30.4048 28.5532 28.5303 30.1602 26.1252C31.7673 23.7201 32.625 20.8926 32.625 18C32.6205 14.1226 31.0783 10.4052 28.3365 7.6635C25.5948 4.92174 21.8774 3.37947 18 3.375ZM29.0194 12.375H24.0061C23.3748 10.0588 22.3107 7.88298 20.8702 5.9625C22.6107 6.38062 24.2402 7.17015 25.6471 8.27698C27.0539 9.38381 28.2048 10.7818 29.0208 12.375H29.0194ZM30.375 18C30.376 19.1413 30.2184 20.2771 29.9067 21.375H24.4913C24.8363 19.1382 24.8363 16.8618 24.4913 14.625H29.9067C30.2184 15.7229 30.376 16.8587 30.375 18ZM18 6.04688C19.6846 7.85042 20.9351 10.0148 21.6563 12.375H14.3438C15.0642 10.0145 16.3148 7.84994 18 6.04688ZM14.3438 23.625H21.6563C20.9359 25.9855 19.6852 28.1501 18 29.9531C16.3154 28.1496 15.0649 25.9852 14.3438 23.625ZM13.7953 21.375C13.4091 19.1416 13.4091 16.8584 13.7953 14.625H22.2159C22.6022 16.8584 22.6022 19.1416 22.2159 21.375H13.7953ZM20.8758 30.0375C22.3164 28.117 23.3804 25.9412 24.0117 23.625H29.0264C28.2098 25.2189 27.0581 26.6172 25.6502 27.724C24.2424 28.8309 22.6117 29.6201 20.8702 30.0375H20.8758Z" fill="white"/>
</svg>
