<svg width="47" height="46" viewBox="0 0 47 46" fill="none" xmlns="http://www.w3.org/2000/svg">
<circle cx="23.5" cy="23" r="23" fill="#855DB9"/>
<path d="M23.5 8.375C20.6075 8.375 17.7799 9.23274 15.3748 10.8398C12.9697 12.4468 11.0952 14.7309 9.98827 17.4033C8.88134 20.0756 8.59171 23.0162 9.15602 25.8532C9.72033 28.6902 11.1132 31.2961 13.1586 33.3414C15.2039 35.3868 17.8098 36.7797 20.6468 37.344C23.4838 37.9083 26.4244 37.6187 29.0968 36.5117C31.7691 35.4048 34.0532 33.5303 35.6602 31.1252C37.2673 28.7201 38.125 25.8926 38.125 23C38.1205 19.1226 36.5783 15.4052 33.8365 12.6635C31.0948 9.92174 27.3774 8.37947 23.5 8.375ZM34.5194 17.375H29.5061C28.8748 15.0588 27.8107 12.883 26.3702 10.9625C28.1107 11.3806 29.7402 12.1702 31.1471 13.277C32.5539 14.3838 33.7048 15.7818 34.5208 17.375H34.5194ZM35.875 23C35.876 24.1413 35.7184 25.2771 35.4067 26.375H29.9913C30.3363 24.1382 30.3363 21.8618 29.9913 19.625H35.4067C35.7184 20.7229 35.876 21.8587 35.875 23ZM23.5 11.0469C25.1846 12.8504 26.4351 15.0148 27.1563 17.375H19.8438C20.5642 15.0145 21.8148 12.8499 23.5 11.0469ZM19.8438 28.625H27.1563C26.4359 30.9855 25.1852 33.1501 23.5 34.9531C21.8154 33.1496 20.5649 30.9852 19.8438 28.625ZM19.2953 26.375C18.9091 24.1416 18.9091 21.8584 19.2953 19.625H27.7159C28.1022 21.8584 28.1022 24.1416 27.7159 26.375H19.2953ZM26.3758 35.0375C27.8164 33.117 28.8804 30.9412 29.5117 28.625H34.5264C33.7098 30.2189 32.5581 31.6172 31.1502 32.724C29.7424 33.8309 28.1117 34.6201 26.3702 35.0375H26.3758Z" fill="white"/>
</svg>
