<svg width="20" height="20" viewBox="0 0 20 20" fill="none" xmlns="http://www.w3.org/2000/svg">
<g clip-path="url(#clip0_1819_5302)">
<path d="M10 20C15.5228 20 20 15.5228 20 10C20 4.47715 15.5228 0 10 0C4.47715 0 0 4.47715 0 10C0 15.5228 4.47715 20 10 20Z" fill="#3577E5"/>
<path d="M10.9333 15.9336V10.5336H12.7333L13 8.40023H10.9333V7.06689C10.9333 6.46689 11.1333 6.06689 12 6.06689H13.1333V4.13356C12.9333 4.13356 12.2667 4.06689 11.5333 4.06689C9.93333 4.06689 8.8 5.06689 8.8 6.86689V8.40023H7V10.5336H8.8V15.9336H10.9333Z" fill="white"/>
</g>
<defs>
<clipPath id="clip0_1819_5302">
<rect width="20" height="20" fill="white"/>
</clipPath>
</defs>
</svg>
