<svg width="30" height="30" viewBox="0 0 30 30" fill="none" xmlns="http://www.w3.org/2000/svg">
<path d="M15 19.375C13.8397 19.375 12.7269 18.9141 11.9064 18.0936C11.0859 17.2731 10.625 16.1603 10.625 15C10.625 13.8397 11.0859 12.7269 11.9064 11.9064C12.7269 11.0859 13.8397 10.625 15 10.625C16.1603 10.625 17.2731 11.0859 18.0936 11.9064C18.9141 12.7269 19.375 13.8397 19.375 15C19.375 16.1603 18.9141 17.2731 18.0936 18.0936C17.2731 18.9141 16.1603 19.375 15 19.375ZM24.2875 16.2125C24.3375 15.8125 24.375 15.4125 24.375 15C24.375 14.5875 24.3375 14.175 24.2875 13.75L26.925 11.7125C27.1625 11.525 27.225 11.1875 27.075 10.9125L24.575 6.5875C24.425 6.3125 24.0875 6.2 23.8125 6.3125L20.7 7.5625C20.05 7.075 19.375 6.65 18.5875 6.3375L18.125 3.025C18.0996 2.87777 18.0229 2.74429 17.9085 2.64819C17.7941 2.5521 17.6494 2.4996 17.5 2.5H12.5C12.1875 2.5 11.925 2.725 11.875 3.025L11.4125 6.3375C10.625 6.65 9.95 7.075 9.3 7.5625L6.1875 6.3125C5.9125 6.2 5.575 6.3125 5.425 6.5875L2.925 10.9125C2.7625 11.1875 2.8375 11.525 3.075 11.7125L5.7125 13.75C5.6625 14.175 5.625 14.5875 5.625 15C5.625 15.4125 5.6625 15.8125 5.7125 16.2125L3.075 18.2875C2.8375 18.475 2.7625 18.8125 2.925 19.0875L5.425 23.4125C5.575 23.6875 5.9125 23.7875 6.1875 23.6875L9.3 22.425C9.95 22.925 10.625 23.35 11.4125 23.6625L11.875 26.975C11.925 27.275 12.1875 27.5 12.5 27.5H17.5C17.8125 27.5 18.075 27.275 18.125 26.975L18.5875 23.6625C19.375 23.3375 20.05 22.925 20.7 22.425L23.8125 23.6875C24.0875 23.7875 24.425 23.6875 24.575 23.4125L27.075 19.0875C27.225 18.8125 27.1625 18.475 26.925 18.2875L24.2875 16.2125Z" fill="#777777"/>
</svg>
