<svg width="46" height="46" viewBox="0 0 46 46" fill="none" xmlns="http://www.w3.org/2000/svg">
<circle cx="23" cy="23" r="23" fill="#855DB9"/>
<path fill-rule="evenodd" clip-rule="evenodd" d="M11.79 18.189C11.3333 19.0845 11.3333 20.103 11.3333 22.14V28.5C11.3333 31.3305 11.3333 32.745 12.31 33.6225C13.195 34.4205 14.5717 34.4925 17.1667 34.5V27C17.1667 26.2044 17.5179 25.4413 18.143 24.8787C18.7681 24.3161 19.6159 24 20.5 24H25.5C26.384 24 27.2319 24.3161 27.857 24.8787C28.4821 25.4413 28.8333 26.2044 28.8333 27V34.5C31.4283 34.4925 32.805 34.419 33.69 33.621C34.6667 32.742 34.6667 31.329 34.6667 28.5V22.14C34.6667 20.103 34.6667 19.0845 34.21 18.189C33.7517 17.2935 32.8933 16.632 31.175 15.306L29.5083 14.0205C26.4 11.625 24.85 10.425 23 10.425C21.15 10.425 19.5983 11.6235 16.4917 14.019L14.825 15.3045C13.1083 16.6305 12.2483 17.292 11.7917 18.1875M25.5 34.5V27H20.5V34.5H25.5Z" fill="white"/>
</svg>
