<svg width="40" height="36" viewBox="0 0 40 36" fill="none" xmlns="http://www.w3.org/2000/svg">
<path fill-rule="evenodd" clip-rule="evenodd" d="M8.78992 15.189C8.33325 16.0845 8.33325 17.103 8.33325 19.14V25.5C8.33325 28.3305 8.33325 29.745 9.30992 30.6225C10.1949 31.4205 11.5716 31.4925 14.1666 31.5V24C14.1666 23.2043 14.5178 22.4413 15.1429 21.8787C15.768 21.3161 16.6159 21 17.4999 21H22.4999C23.384 21 24.2318 21.3161 24.8569 21.8787C25.4821 22.4413 25.8333 23.2043 25.8333 24V31.5C28.4283 31.4925 29.8049 31.419 30.6899 30.621C31.6666 29.742 31.6666 28.329 31.6666 25.5V19.14C31.6666 17.103 31.6666 16.0845 31.2099 15.189C30.7516 14.2935 29.8933 13.632 28.1749 12.306L26.5083 11.0205C23.3999 8.62499 21.8499 7.42499 19.9999 7.42499C18.1499 7.42499 16.5983 8.62349 13.4916 11.019L11.8249 12.3045C10.1083 13.6305 9.24825 14.292 8.79159 15.1875M22.4999 31.5V24H17.4999V31.5H22.4999Z" fill="white"/>
</svg>
