<svg width="40" height="36" viewBox="0 0 40 36" fill="none" xmlns="http://www.w3.org/2000/svg">
<path d="M8.33333 19.14C8.33333 17.103 8.33333 16.0845 8.79 15.189C9.24833 14.2935 10.1067 13.632 11.825 12.306L13.4917 11.0205C16.6 8.625 18.15 7.425 20 7.425C21.85 7.425 23.4017 8.6235 26.5083 11.019L28.175 12.3045C29.8917 13.6305 30.7517 14.292 31.2083 15.1875C31.6667 16.083 31.6667 17.1015 31.6667 19.1385V25.5C31.6667 28.329 31.6667 29.742 30.69 30.621C29.7133 31.5 28.1433 31.5 25 31.5H15C11.8567 31.5 10.2867 31.5 9.30999 30.621C8.33333 29.742 8.33333 28.329 8.33333 25.5V19.14Z" stroke="white" stroke-opacity="0.3"/>
<path d="M24.1667 31.5V24C24.1667 23.6022 23.9911 23.2206 23.6785 22.9393C23.3659 22.658 22.942 22.5 22.5 22.5H17.5C17.058 22.5 16.634 22.658 16.3215 22.9393C16.0089 23.2206 15.8333 23.6022 15.8333 24V31.5" stroke="white" stroke-opacity="0.3" stroke-linecap="round" stroke-linejoin="round"/>
</svg>
