<svg width="40" height="36" viewBox="0 0 40 36" fill="none" xmlns="http://www.w3.org/2000/svg">
<path d="M8.33325 19.1398C8.33325 17.1028 8.33325 16.0843 8.78992 15.1888C9.24825 14.2933 10.1066 13.6318 11.8249 12.3058L13.4916 11.0203C16.5999 8.62481 18.1499 7.4248 19.9999 7.4248C21.8499 7.4248 23.4016 8.62331 26.5083 11.0188L28.1749 12.3043C29.8916 13.6303 30.7516 14.2918 31.2083 15.1873C31.6666 16.0828 31.6666 17.1013 31.6666 19.1383V25.4998C31.6666 28.3288 31.6666 29.7418 30.6899 30.6208C29.7133 31.4998 28.1433 31.4998 24.9999 31.4998H14.9999C11.8566 31.4998 10.2866 31.4998 9.30992 30.6208C8.33325 29.7418 8.33325 28.3288 8.33325 25.4998V19.1398Z" stroke="#6C6C6C"/>
<path d="M24.1666 31.5V24C24.1666 23.6022 23.991 23.2206 23.6784 22.9393C23.3659 22.658 22.9419 22.5 22.4999 22.5H17.4999C17.0579 22.5 16.634 22.658 16.3214 22.9393C16.0088 23.2206 15.8333 23.6022 15.8333 24V31.5" stroke="#6C6C6C" stroke-linecap="round" stroke-linejoin="round"/>
</svg>
