<svg width="46" height="46" viewBox="0 0 46 46" fill="none" xmlns="http://www.w3.org/2000/svg">
<circle cx="23" cy="23" r="23" fill="#855DB9"/>
<path d="M35.4579 29.367C34.7208 28.0973 33.625 24.5048 33.625 19.8125C33.625 16.9946 32.5056 14.2921 30.5131 12.2995C28.5205 10.3069 25.818 9.1875 23 9.1875C20.1821 9.1875 17.4796 10.3069 15.487 12.2995C13.4945 14.2921 12.375 16.9946 12.375 19.8125C12.375 24.5061 11.278 28.0973 10.5409 29.367C10.3527 29.6898 10.2529 30.0565 10.2516 30.4302C10.2503 30.8039 10.3476 31.1713 10.5336 31.4953C10.7196 31.8194 10.9878 32.0887 11.3111 32.2761C11.6344 32.4634 12.0014 32.5622 12.375 32.5625H17.7951C18.0403 33.762 18.6922 34.84 19.6406 35.6142C20.589 36.3884 21.7757 36.8113 23 36.8113C24.2243 36.8113 25.4111 36.3884 26.3595 35.6142C27.3079 34.84 27.9598 33.762 28.205 32.5625H33.625C33.9986 32.562 34.3654 32.463 34.6885 32.2756C35.0117 32.0881 35.2796 31.8188 35.4655 31.4948C35.6514 31.1707 35.7485 30.8034 35.7472 30.4299C35.7458 30.0563 35.646 29.6897 35.4579 29.367ZM23 34.6875C22.3411 34.6873 21.6983 34.4829 21.1603 34.1023C20.6223 33.7218 20.2155 33.1838 19.9958 32.5625H26.0043C25.7846 33.1838 25.3778 33.7218 24.8398 34.1023C24.3018 34.4829 23.659 34.6873 23 34.6875Z" fill="white"/>
</svg>
