<svg width="36" height="36" viewBox="0 0 36 36" fill="none" xmlns="http://www.w3.org/2000/svg">
<path d="M30.7055 25.0312C29.8941 23.625 28.6875 19.7058 28.6875 14.625C28.6875 11.7905 27.5615 9.07209 25.5572 7.0678C23.5529 5.0635 20.8345 3.9375 18 3.9375C15.1655 3.9375 12.4471 5.0635 10.4428 7.0678C8.43853 9.07209 7.31253 11.7905 7.31253 14.625C7.31253 19.7058 6.10456 23.625 5.29315 25.0242C5.14348 25.2806 5.06409 25.5719 5.063 25.8688C5.06191 26.1657 5.13915 26.4576 5.28693 26.715C5.43471 26.9725 5.64779 27.1864 5.90468 27.3352C6.16157 27.484 6.45316 27.5624 6.75003 27.5625H12.9699C13.1102 28.7983 13.7006 29.9391 14.6283 30.7675C15.5561 31.5958 16.7563 32.0537 18 32.0537C19.2438 32.0537 20.444 31.5958 21.3717 30.7675C22.2995 29.9391 22.8898 28.7983 23.0302 27.5625H29.25C29.5457 27.5615 29.836 27.4827 30.0917 27.3342C30.3474 27.1857 30.5596 26.9725 30.707 26.7162C30.8544 26.4598 30.9318 26.1692 30.9316 25.8735C30.9313 25.5778 30.8534 25.2873 30.7055 25.0312ZM18 30.9375C17.0533 30.9374 16.1382 30.5962 15.4226 29.9763C14.7069 29.3565 14.2386 28.4996 14.1033 27.5625H21.8967C21.7615 28.4996 21.2931 29.3565 20.5775 29.9763C19.8618 30.5962 18.9468 30.9374 18 30.9375ZM29.7352 26.1562C29.6871 26.2421 29.6168 26.3135 29.5318 26.363C29.4467 26.4125 29.3499 26.4382 29.2514 26.4375H6.75003C6.6516 26.4382 6.55479 26.4125 6.4697 26.363C6.38461 26.3135 6.31436 26.2421 6.26628 26.1562C6.21691 26.0707 6.19092 25.9737 6.19092 25.875C6.19092 25.7763 6.21691 25.6793 6.26628 25.5938C7.31253 23.7895 8.43753 19.5919 8.43753 14.625C8.43753 12.0889 9.445 9.65661 11.2383 7.86329C13.0316 6.06997 15.4639 5.0625 18 5.0625C20.5362 5.0625 22.9684 6.06997 24.7617 7.86329C26.555 9.65661 27.5625 12.0889 27.5625 14.625C27.5625 19.5905 28.6875 23.7895 29.7338 25.5938C29.7834 25.6791 29.8096 25.7761 29.8098 25.8748C29.8101 25.9736 29.7843 26.0706 29.7352 26.1562Z" fill="#6C6C6C"/>
</svg>
