<svg width="34" height="34" viewBox="0 0 34 34" fill="none" xmlns="http://www.w3.org/2000/svg">
<path d="M29.4577 23.367C28.7206 22.0973 27.6249 18.5048 27.6249 13.8125C27.6249 10.9946 26.5055 8.29207 24.5129 6.29949C22.5204 4.30692 19.8179 3.1875 16.9999 3.1875C14.182 3.1875 11.4795 4.30692 9.48692 6.29949C7.49434 8.29207 6.37493 10.9946 6.37493 13.8125C6.37493 18.5061 5.27789 22.0973 4.54078 23.367C4.35255 23.6898 4.25276 24.0565 4.25148 24.4302C4.25019 24.8039 4.34746 25.1713 4.53348 25.4953C4.71949 25.8194 4.98767 26.0887 5.31097 26.2761C5.63427 26.4634 6.00126 26.5622 6.37493 26.5625H11.795C12.0401 27.762 12.6921 28.84 13.6405 29.6142C14.5889 30.3884 15.7756 30.8113 16.9999 30.8113C18.2242 30.8113 19.4109 30.3884 20.3594 29.6142C21.3078 28.84 21.9597 27.762 22.2048 26.5625H27.6249C27.9985 26.562 28.3653 26.463 28.6884 26.2756C29.0115 26.0881 29.2795 25.8188 29.4654 25.4948C29.6512 25.1707 29.7484 24.8034 29.747 24.4299C29.7457 24.0563 29.6459 23.6897 29.4577 23.367ZM16.9999 28.6875C16.3409 28.6873 15.6982 28.4829 15.1602 28.1023C14.6222 27.7218 14.2154 27.1838 13.9957 26.5625H20.0041C19.7845 27.1838 19.3777 27.7218 18.8396 28.1023C18.3016 28.4829 17.6589 28.6873 16.9999 28.6875Z" fill="white"/>
</svg>
