<svg width="36" height="36" viewBox="0 0 36 36" fill="none" xmlns="http://www.w3.org/2000/svg">
<path fill-rule="evenodd" clip-rule="evenodd" d="M18 18C21.315 18 24 15.315 24 12C24 8.685 21.315 6 18 6C14.685 6 12 8.685 12 12C12 15.315 14.685 18 18 18ZM25.5 12C25.5 16.1438 22.1438 19.5 18 19.5C13.8563 19.5 10.5 16.1438 10.5 12C10.5 7.85625 13.8563 4.5 18 4.5C22.1438 4.5 25.5 7.85625 25.5 12ZM6.91725 25.659C6.165 26.2665 6 26.7218 6 27V30H30V27C30 26.7225 29.835 26.2658 29.082 25.659C28.347 25.0658 27.2505 24.5002 25.9215 24.0112C23.265 23.034 20.0648 22.5 18 22.5C15.9353 22.5 12.735 23.034 10.0785 24.0112C8.7495 24.5002 7.653 25.0658 6.91725 25.659ZM18 21C13.4948 21 4.5 23.2763 4.5 27V31.5H31.5V27C31.5 23.2763 22.506 21 18 21Z" fill="white" fill-opacity="0.3"/>
</svg>
