<svg width="30" height="30" viewBox="0 0 30 30" fill="none" xmlns="http://www.w3.org/2000/svg">
<path d="M30 15C30 23.2843 23.2843 30 15 30C6.71573 30 0 23.2843 0 15C0 6.71573 6.71573 0 15 0C23.2843 0 30 6.71573 30 15ZM2.89604 15C2.89604 21.6848 8.31517 27.104 15 27.104C21.6848 27.104 27.104 21.6848 27.104 15C27.104 8.31517 21.6848 2.89604 15 2.89604C8.31517 2.89604 2.89604 8.31517 2.89604 15Z" fill="#777777"/>
<path d="M12.9119 19.4418V19.2017C12.9181 18.0876 13.0227 17.2012 13.2259 16.5426C13.4351 15.884 13.7306 15.3546 14.1122 14.9545C14.4938 14.5483 14.9586 14.1759 15.5064 13.8374C15.8819 13.6035 16.2173 13.348 16.5128 13.071C16.8144 12.7879 17.0514 12.474 17.2237 12.1293C17.3961 11.7784 17.4822 11.3875 17.4822 10.9567C17.4822 10.4704 17.3684 10.0488 17.1406 9.69176C16.9129 9.33475 16.6051 9.05777 16.2173 8.8608C15.8357 8.66383 15.4079 8.56534 14.9339 8.56534C14.4969 8.56534 14.0814 8.66075 13.6875 8.85156C13.2997 9.03622 12.9766 9.31936 12.718 9.70099C12.4657 10.0765 12.3241 10.5535 12.2933 11.1321H9.00639C9.03717 9.96259 9.32031 8.9839 9.85582 8.19602C10.3975 7.40814 11.1115 6.81723 11.9979 6.42329C12.8904 6.02936 13.8752 5.83239 14.9524 5.83239C16.1281 5.83239 17.1622 6.03859 18.0547 6.45099C18.9534 6.8634 19.652 7.45123 20.1506 8.21449C20.6553 8.97159 20.9077 9.87026 20.9077 10.9105C20.9077 11.6122 20.7938 12.2401 20.5661 12.794C20.3445 13.348 20.0275 13.8404 19.6151 14.2713C19.2027 14.7022 18.7133 15.0869 18.147 15.4254C17.6484 15.7332 17.2391 16.0533 16.919 16.3857C16.6051 16.718 16.3712 17.1089 16.2173 17.5582C16.0696 18.0014 15.9927 18.5492 15.9865 19.2017V19.4418H12.9119ZM14.5185 25.2031C13.9645 25.2031 13.4875 25.0062 13.0874 24.6122C12.6873 24.2183 12.4872 23.7382 12.4872 23.1719C12.4872 22.6179 12.6873 22.1439 13.0874 21.75C13.4875 21.3561 13.9645 21.1591 14.5185 21.1591C15.0663 21.1591 15.5402 21.3561 15.9403 21.75C16.3466 22.1439 16.5497 22.6179 16.5497 23.1719C16.5497 23.5473 16.4543 23.889 16.2635 24.1967C16.0788 24.5045 15.8326 24.7507 15.5249 24.9354C15.2232 25.1139 14.8878 25.2031 14.5185 25.2031Z" fill="#777777"/>
</svg>
