<svg width="32" height="32" viewBox="0 0 32 32" fill="none" xmlns="http://www.w3.org/2000/svg">
<path d="M31 16C31 24.2843 24.2843 31 16 31C7.71573 31 1 24.2843 1 16C1 7.71573 7.71573 1 16 1C24.2843 1 31 7.71573 31 16ZM3.89604 16C3.89604 22.6848 9.31517 28.104 16 28.104C22.6848 28.104 28.104 22.6848 28.104 16C28.104 9.31517 22.6848 3.89604 16 3.89604C9.31517 3.89604 3.89604 9.31517 3.89604 16Z" fill="#777777"/>
<path d="M13.9119 20.4418V20.2017C13.9181 19.0876 14.0227 18.2012 14.2259 17.5426C14.4351 16.884 14.7306 16.3546 15.1122 15.9545C15.4938 15.5483 15.9586 15.1759 16.5064 14.8374C16.8819 14.6035 17.2173 14.348 17.5128 14.071C17.8144 13.7879 18.0514 13.474 18.2237 13.1293C18.3961 12.7784 18.4822 12.3875 18.4822 11.9567C18.4822 11.4704 18.3684 11.0488 18.1406 10.6918C17.9129 10.3348 17.6051 10.0578 17.2173 9.8608C16.8357 9.66383 16.4079 9.56534 15.9339 9.56534C15.4969 9.56534 15.0814 9.66075 14.6875 9.85156C14.2997 10.0362 13.9766 10.3194 13.718 10.701C13.4657 11.0765 13.3241 11.5535 13.2933 12.1321H10.0064C10.0372 10.9626 10.3203 9.9839 10.8558 9.19602C11.3975 8.40814 12.1115 7.81723 12.9979 7.42329C13.8904 7.02936 14.8752 6.83239 15.9524 6.83239C17.1281 6.83239 18.1622 7.03859 19.0547 7.45099C19.9534 7.8634 20.652 8.45123 21.1506 9.21449C21.6553 9.97159 21.9077 10.8703 21.9077 11.9105C21.9077 12.6122 21.7938 13.2401 21.5661 13.794C21.3445 14.348 21.0275 14.8404 20.6151 15.2713C20.2027 15.7022 19.7133 16.0869 19.147 16.4254C18.6484 16.7332 18.2391 17.0533 17.919 17.3857C17.6051 17.718 17.3712 18.1089 17.2173 18.5582C17.0696 19.0014 16.9927 19.5492 16.9865 20.2017V20.4418H13.9119ZM15.5185 26.2031C14.9645 26.2031 14.4875 26.0062 14.0874 25.6122C13.6873 25.2183 13.4872 24.7382 13.4872 24.1719C13.4872 23.6179 13.6873 23.1439 14.0874 22.75C14.4875 22.3561 14.9645 22.1591 15.5185 22.1591C16.0663 22.1591 16.5402 22.3561 16.9403 22.75C17.3466 23.1439 17.5497 23.6179 17.5497 24.1719C17.5497 24.5473 17.4543 24.889 17.2635 25.1967C17.0788 25.5045 16.8326 25.7507 16.5249 25.9354C16.2232 26.1139 15.8878 26.2031 15.5185 26.2031Z" fill="#777777"/>
</svg>
