<svg width="24" height="24" viewBox="0 0 24 24" fill="none" xmlns="http://www.w3.org/2000/svg">
<path d="M14.4351 13.0629H13.7124L13.4563 12.8159C14.3528 11.773 14.8925 10.4191 14.8925 8.94625C14.8925 5.66209 12.2304 3 8.94625 3C5.66209 3 3 5.66209 3 8.94625C3 12.2304 5.66209 14.8925 8.94625 14.8925C10.4191 14.8925 11.773 14.3528 12.8159 13.4563L13.0629 13.7124V14.4351L17.6369 19L19 17.6369L14.4351 13.0629ZM8.94625 13.0629C6.66838 13.0629 4.82962 11.2241 4.82962 8.94625C4.82962 6.66838 6.66838 4.82962 8.94625 4.82962C11.2241 4.82962 13.0629 6.66838 13.0629 8.94625C13.0629 11.2241 11.2241 13.0629 8.94625 13.0629Z" fill="#777777"/>
</svg>
