<svg width="40" height="40" viewBox="0 0 40 40" fill="none" xmlns="http://www.w3.org/2000/svg">
<circle cx="20" cy="20" r="20" fill="#2F2F2F"/>
<path d="M11.6667 30C11.6667 30 10 30 10 28.3333C10 26.6667 11.6667 21.6667 20 21.6667C28.3333 21.6667 30 26.6667 30 28.3333C30 30 28.3333 30 28.3333 30H11.6667ZM20 20C21.3261 20 22.5979 19.4732 23.5355 18.5355C24.4732 17.5979 25 16.3261 25 15C25 13.6739 24.4732 12.4021 23.5355 11.4645C22.5979 10.5268 21.3261 10 20 10C18.6739 10 17.4021 10.5268 16.4645 11.4645C15.5268 12.4021 15 13.6739 15 15C15 16.3261 15.5268 17.5979 16.4645 18.5355C17.4021 19.4732 18.6739 20 20 20Z" fill="#B1B1B1"/>
</svg>
