<svg width="46" height="46" viewBox="0 0 46 46" fill="none" xmlns="http://www.w3.org/2000/svg">
<circle cx="23" cy="23" r="23" fill="#855DB9"/>
<path fill-rule="evenodd" clip-rule="evenodd" d="M23.8983 19.3656L29.3917 13.8722C29.6193 13.6445 29.7472 13.3357 29.7472 13.0137C29.7472 12.6917 29.6193 12.3829 29.3917 12.1552L22.0963 4.85974C21.8686 4.63209 21.5598 4.50421 21.2378 4.50421C20.9158 4.50421 20.607 4.63209 20.3793 4.85974L14.8858 10.3507C14.7728 10.4635 14.683 10.5975 14.6218 10.7451C14.5606 10.8926 14.5291 11.0507 14.5291 11.2105C14.5291 11.3702 14.5606 11.5283 14.6218 11.6758C14.683 11.8234 14.7728 11.9574 14.8858 12.0702L22.1813 19.3656C22.409 19.5932 22.7178 19.7211 23.0398 19.7211C23.3618 19.7211 23.6706 19.5932 23.8983 19.3656ZM12.0177 17.6899H16.2118L19.8838 21.3595H16.921C16.5184 21.3595 16.1324 21.5194 15.8477 21.804C15.563 22.0887 15.4031 22.4747 15.4031 22.8773C15.4031 23.2799 15.563 23.6659 15.8477 23.9506C16.1324 24.2353 16.5184 24.3952 16.921 24.3952H28.7481C29.1507 24.3952 29.5368 24.2353 29.8214 23.9506C30.1061 23.6659 30.266 23.2799 30.266 22.8773C30.266 22.4747 30.1061 22.0887 29.8214 21.804C29.5368 21.5194 29.1507 21.3595 28.7481 21.3595H26.1957L29.8653 17.6875H33.6466C34.6127 17.6875 35.5393 18.0713 36.2225 18.7544C36.9056 19.4376 37.2894 20.3642 37.2894 21.3303V27.6859H8.37485V21.3303C8.37485 20.3642 8.75865 19.4376 9.44182 18.7544C10.125 18.0713 11.0516 17.6899 12.0177 17.6899ZM37.2918 30.7216H8.37485V36.7202C8.37485 37.0422 8.50278 37.3511 8.7305 37.5788C8.95823 37.8065 9.26708 37.9345 9.58913 37.9345H36.0776C36.3996 37.9345 36.7085 37.8065 36.9362 37.5788C37.1639 37.3511 37.2918 37.0422 37.2918 36.7202V30.7216Z" fill="white"/>
</svg>
