<svg width="34" height="34" viewBox="0 0 34 34" fill="none" xmlns="http://www.w3.org/2000/svg">
<path fill-rule="evenodd" clip-rule="evenodd" d="M17.3982 15.3656L22.8916 9.87217C23.1193 9.64445 23.2471 9.33565 23.2471 9.01367C23.2471 8.69168 23.1193 8.38288 22.8916 8.15517L15.5962 0.859738C15.3685 0.632094 15.0597 0.504211 14.7377 0.504211C14.4157 0.504211 14.1069 0.632094 13.8792 0.859738L8.38576 6.35074C8.27267 6.46353 8.18296 6.59753 8.12174 6.74506C8.06052 6.89258 8.02901 7.05073 8.02901 7.21045C8.02901 7.37017 8.06052 7.52832 8.12174 7.67585C8.18296 7.82337 8.27267 7.95737 8.38576 8.07017L15.6812 15.3656C15.9089 15.5932 16.2177 15.7211 16.5397 15.7211C16.8617 15.7211 17.1705 15.5932 17.3982 15.3656ZM5.51761 13.6899H9.71176L13.3838 17.3595H10.4209C10.0183 17.3595 9.63227 17.5194 9.34761 17.804C9.06296 18.0887 8.90304 18.4747 8.90304 18.8773C8.90304 19.2799 9.06296 19.6659 9.34761 19.9506C9.63227 20.2353 10.0183 20.3952 10.4209 20.3952H22.248C22.6506 20.3952 23.0367 20.2353 23.3213 19.9506C23.606 19.6659 23.7659 19.2799 23.7659 18.8773C23.7659 18.4747 23.606 18.0887 23.3213 17.804C23.0367 17.5194 22.6506 17.3595 22.248 17.3595H19.6956L23.3652 13.6875H27.1465C28.1126 13.6875 29.0392 14.0713 29.7224 14.7544C30.4055 15.4376 30.7893 16.3642 30.7893 17.3303V23.6859H1.87476V17.3303C1.87476 16.3642 2.25856 15.4376 2.94172 14.7544C3.62489 14.0713 4.55147 13.6899 5.51761 13.6899ZM30.7918 26.7216H1.87476V32.7202C1.87476 33.0422 2.00269 33.3511 2.23041 33.5788C2.45813 33.8065 2.76699 33.9345 3.08904 33.9345H29.5775C29.8995 33.9345 30.2084 33.8065 30.4361 33.5788C30.6638 33.3511 30.7918 33.0422 30.7918 32.7202V26.7216Z" fill="white"/>
</svg>
