<svg width="37" height="36" viewBox="0 0 37 36" fill="none" xmlns="http://www.w3.org/2000/svg">
<path d="M14.401 15.7783H6.34218C5.6602 15.7783 5.00614 16.0492 4.52391 16.5315C4.04167 17.0137 3.77075 17.6678 3.77075 18.3497V26.3932M3.77075 26.3932H31.8173M3.77075 26.3932V34.2M31.8173 26.3932V18.3497C31.8173 17.6678 31.5464 17.0137 31.0642 16.5315C30.5819 16.0492 29.9279 15.7783 29.2459 15.7783H21.1922M31.8173 26.3932V34.2" stroke="#6C6C6C" stroke-linecap="round" stroke-linejoin="round"/>
<path d="M13.0227 21.0856H22.5627M24.5169 12.4533L18.7055 18.2699C18.4644 18.5109 18.1374 18.6463 17.7965 18.6463C17.4556 18.6463 17.1286 18.5109 16.8875 18.2699L9.16038 10.5427C8.91934 10.3016 8.78394 9.97468 8.78394 9.63375C8.78394 9.29282 8.91934 8.96586 9.16038 8.72475L14.9769 2.90818C15.2181 2.66714 15.545 2.53174 15.8859 2.53174C16.2269 2.53174 16.5538 2.66714 16.7949 2.90818L24.5169 10.6353C24.758 10.8764 24.8934 11.2034 24.8934 11.5443C24.8934 11.8852 24.758 12.2122 24.5169 12.4533Z" stroke="#6C6C6C" stroke-linecap="round" stroke-linejoin="round"/>
</svg>
