<svg width="37" height="36" viewBox="0 0 37 36" fill="none" xmlns="http://www.w3.org/2000/svg">
<path d="M14.4011 15.7783H6.34229C5.6603 15.7783 5.00625 16.0492 4.52401 16.5314C4.04177 17.0137 3.77086 17.6677 3.77086 18.3497V26.3931M3.77086 26.3931H31.8174M3.77086 26.3931V34.2M31.8174 26.3931V18.3497C31.8174 17.6677 31.5465 17.0137 31.0643 16.5314C30.582 16.0492 29.928 15.7783 29.246 15.7783H21.1923M31.8174 26.3931V34.2" stroke="white" stroke-opacity="0.3" stroke-linecap="round" stroke-linejoin="round"/>
<path d="M13.0229 21.0857H22.5629M24.5171 12.4534L18.7057 18.27C18.4646 18.511 18.1376 18.6464 17.7967 18.6464C17.4558 18.6464 17.1288 18.511 16.8877 18.27L9.16057 10.5429C8.91954 10.3017 8.78413 9.97478 8.78413 9.63386C8.78413 9.29293 8.91954 8.96596 9.16057 8.72486L14.9771 2.90828C15.2182 2.66725 15.5452 2.53185 15.8861 2.53185C16.2271 2.53185 16.554 2.66725 16.7951 2.90828L24.5171 10.6354C24.7582 10.8765 24.8936 11.2035 24.8936 11.5444C24.8936 11.8854 24.7582 12.2123 24.5171 12.4534Z" stroke="white" stroke-opacity="0.3" stroke-linecap="round" stroke-linejoin="round"/>
</svg>
