<svg width="72" height="32" viewBox="0 0 72 32" fill="none" xmlns="http://www.w3.org/2000/svg">
<path d="M61.9412 18.3652C61.9412 23.5903 57.9118 27.8261 52.9412 27.8261C47.9706 27.8261 43.9412 23.5903 43.9412 18.3652C43.9412 13.1401 47.9706 8.90435 52.9412 8.90435C57.9118 8.90435 61.9412 13.1401 61.9412 18.3652Z" fill="#6A5DB9"/>
<path d="M49.7647 15.5826C42.2931 19.5097 36 32 36 32C36 32 35.2059 16.1391 47.9118 9.46087C57.8698 4.2269 67.2353 9.20246 72 0C72 14.7478 57.1765 11.687 49.7647 15.5826Z" fill="#6A5DB9"/>
<path d="M10.0588 18.3652C10.0588 23.5903 14.0883 27.8261 19.0588 27.8261C24.0294 27.8261 28.0588 23.5903 28.0588 18.3652C28.0588 13.1401 24.0294 8.90435 19.0588 8.90435C14.0883 8.90435 10.0588 13.1401 10.0588 18.3652Z" fill="#6A5DB9"/>
<path d="M22.2353 15.5826C29.7069 19.5097 36 32 36 32C36 32 36.7941 16.1391 24.0883 9.46087C14.1302 4.2269 4.76471 9.20246 0 0C0 14.7478 14.8235 11.687 22.2353 15.5826Z" fill="#6A5DB9"/>
</svg>
