<svg xmlns="http://www.w3.org/2000/svg" width="136" height="60" viewBox="0 0 136 60" fill="none">
  <g clip-path="url(#clip0_1064_3977)">
    <path d="M117 34.4348C117 44.2318 109.389 52.1739 100 52.1739C90.6112 52.1739 83 44.2318 83 34.4348C83 24.6377 90.6112 16.6957 100 16.6957C109.389 16.6957 117 24.6377 117 34.4348Z" fill="#855DB9"/>
    <path d="M94 29.2174C79.887 36.5807 68 60 68 60C68 60 66.5 30.2609 90.5 17.7391C109.31 7.92544 127 17.2546 136 0C136 27.6522 108 21.9131 94 29.2174Z" fill="#855DB9"/>
    <path d="M19 34.4348C19 44.2318 26.6111 52.1739 36 52.1739C45.3888 52.1739 53 44.2318 53 34.4348C53 24.6377 45.3888 16.6957 36 16.6957C26.6111 16.6957 19 24.6377 19 34.4348Z" fill="#855DB9"/>
    <path d="M42 29.2174C56.113 36.5807 68 60 68 60C68 60 69.5 30.2609 45.5 17.7391C26.6905 7.92544 9 17.2546 0 0C0 27.6522 28 21.9131 42 29.2174Z" fill="#855DB9"/>
  </g>
  <defs>
    <clipPath id="clip0_1064_3977">
      <rect width="136" height="60" fill="#855DB9"/>
    </clipPath>
  </defs>
</svg>